<?xml version="1.0" encoding="UTF-8"?><svg id="Layer_1" xmlns="http://www.w3.org/2000/svg" viewBox="0 0 46.44 36"><defs><style>.cls-1{fill:#000;stroke-width:0px;}</style></defs><path class="cls-1" d="M44.26,34.2h-6.48l-11.75-25.23-11.66,25.23h-6.57l-.86-1.21-.78-1.3-1.04-1.81-.86-2.07-.86-2.16-.52-2.51-.52-2.85-.17-2.94.17-2.94.26-2.68.52-2.59.6-1.99.86-1.81.86-1.56,1.04-1.3.6-.69h6.13l-1.04,1.04-.86,1.3-.86,1.56-.69,1.56-.6,1.9-.52,2.51-.43,2.76-.17,2.76.17,2.76.52,2.94.69,2.25.69,1.38.86,1.21L22.83,1.8h6.48l14.95,32.4Z"/></svg>