<?xml version="1.0" encoding="UTF-8"?><svg id="Layer_1" xmlns="http://www.w3.org/2000/svg" viewBox="0 0 30.27 36"><defs><style>.cls-1{fill:#000;stroke-width:0px;}</style></defs><path class="cls-1" d="M28.41,1.89v32.23H7.44l-.86-1.2-.77-1.29-1.03-1.81-.86-2.06-.86-2.15-.52-2.49-.52-2.84-.17-2.92.17-2.92.26-2.66.51-2.58.6-1.98.86-1.81.86-1.55,1.03-1.29.6-.69h7.82l.95.13.56.26.34.6.04.86v4.6h-6.36v-2.58l-.69,1.55-.6,1.89-.52,2.49-.43,2.75-.17,2.75.17,2.75.52,2.92.69,2.23.69,1.37.86,1.2h11.34V1.89h6.45Z"/></svg>